# xmcd
#
# Track frame offsets:
#	150
#	14473
#	32129
#	47568
#	62941
#	80310
#	95000
#	110892
#	125748
#	141110
#	157845
#	174584
#	191296
#	207511
#	223867
#
# Disc length: 3207 seconds
#
# Revision: 0
# Processed by: cddbd v1.5.1PL0 Copyright (c) Steve Scherf et al.
# Submitted via: dBpowerAMP V4.0
#
DISCID=db0c850f
DTITLE=M SZOLTYSEK I WESOLE TRIO - ZABAWA W SLASKIM KLIMACIE
DYEAR=1900
DGENRE=Country
TTITLE0=ZABAWA
TTITLE1=SLASKI DOM
TTITLE2=SWOJSKO BIESIADA
TTITLE3=DZIEKUJA MAMO
TTITLE4=MOJA BRYKA
TTITLE5=SERCE DO ZABAWY
TTITLE6=SLASKIE RAPOWANIE
TTITLE7=NA FESTYNIE
TTITLE8=TO NASZE PIWKO
TTITLE9=NIY WYCIEPUJ TYJ MILOSCI
TTITLE10=PLASPATRONY I BALONY
TTITLE11=ROKYNDROL
TTITLE12=RADOSNY DZIN
TTITLE13=MUSISZ WIERZYC
TTITLE14=DOBRANOC DOBRANOC
EXTD=
EXTT0=
EXTT1=
EXTT2=
EXTT3=
EXTT4=
EXTT5=
EXTT6=
EXTT7=
EXTT8=
EXTT9=
EXTT10=
EXTT11=
EXTT12=
EXTT13=
EXTT14=
PLAYORDER=
